<svg id="Capa_1" enable-background="new 0 0 512 512" height="512" viewBox="0 0 512 512" width="512" xmlns="http://www.w3.org/2000/svg"><g><path d="m95.386 188.917c4.433-.02 8.833-.036 11.617-.036 6.76 0 12.471-5.037 12.471-11 0-5.962-5.711-10.999-12.471-10.999h-11.617z"/><path d="m204.227 369.75h103.547v142.25h-103.547z"/><path d="m512 339.75v-270.42h-204.227v-30.078l-51.773-39.252-51.773 39.252v30.078h-204.227v270.42zm-132.838-202.868h72.08v30h-20.363v98.885h-30v-98.885h-21.717zm-122.981.183 27.679.006 42.871 68.229v-69.05h30v129.133h-27.679l-42.872-68.229v68.614h-30v-128.703zm-91.475-.183h64.977v30h-34.977v19.564h31.897v30h-31.897v19.563h34.977v30h-64.977zm-99.32 0h41.617c23.419 0 42.471 18.392 42.471 40.999 0 17.119-10.928 31.812-26.4 37.942l28.267 32.668-22.686 19.63-33.269-38.448v34.404h-30z"/></g></svg>