<svg id="Capa_1" enable-background="new 0 0 512 512" height="512" viewBox="0 0 512 512" width="512" xmlns="http://www.w3.org/2000/svg"><g><path d="m512 69.33h-189.227v-29.266l-66.773-40.064-66.773 40.064v29.266h-189.227v271h189.227v171.67h133.547v-171.67h189.226zm-292.773-12.281 36.773-22.064 36.773 22.064v12.28h-73.547v-12.28zm73.546 424.951h-73.547v-141.67h73.547zm189.227-171.67h-452v-211h452z"/><path d="m186.991 272.122 11.015-28.92h39.649l10.904 28.894 28.067-10.592-46.185-122.384-24.905.026-46.58 122.299zm39.343-58.92h-16.901l8.49-22.29z"/><path d="m353.005 237.786h-35.031v-99.956h-30v129.956h65.031z"/><path d="m442.108 237.786h-41.767v-19.563h38.687v-30h-38.687v-19.564h41.767v-30h-71.767v129.127h71.767z"/><path d="m105.49 168.724c11.308-5.016 28.305 7.183 37.401 15.376l18.612-23.529c-27.329-25.001-50.256-25.192-64.825-20.525-14.517 4.384-24.818 15.864-26.931 30.064-2.029 13.632 3.825 26.741 15.28 34.208 1.986 1.295 15.674 7.145 32.104 13.309 6.105 2.251 12.338 6.282 11.524 10.84-.671 3.758-5.908 9.318-15.02 9.318-14.73.855-25.652-11.156-33.82-21.017l-22.229 20.146c13.726 17.561 32.37 31.368 56.05 30.871 22.293 0 41.03-14.318 44.553-34.045 2.668-14.942-3.989-34.417-30.676-44.26-11.852-4.372-22.917-9.124-26.757-10.8-2.707-3.39-1.679-7.336 4.734-9.956z"/></g></svg>